# xmcd
#
# Track frame offsets:
# 150
# 18801
# 33118
# 52545
# 67507
# 85144
# 103280
# 116382
# 129918
# 149126
# 164779
# 183581
# 199140
# 217535
#
# Disc length: 3121 seconds
#
#
# Revision: 0
# Processed by: cddbd v1.5.1PL2 Copyright (c) Steve Scherf et al.
# Submitted via: FreeRIP 2.944 
#
DISCID=b20c2f0e
DTITLE=Grupo Tradição As Melhores - As melhores 
DYEAR=2005
DGENRE=Country
TTITLE0=DO JEITO QUE A GENTE GOSTA
TTITLE1=NAMORO DE ESTÂNCIA
TTITLE2=SOM DE CRISTAL
TTITLE3=NINGUÉM É DE NINGUÉM
TTITLE4=CEREJA E MAÇÃ
TTITLE5=INIMIGO DO PEITO
TTITLE6=EU HOJE ENTREGO OS PONTOS
TTITLE7=LÁ QUE EU VOU
TTITLE8=ROUPA DE LUA DE MEL
TTITLE9=MARIA FUMAÇA
TTITLE10=SEU DIÁRIO
TTITLE11=SAUDADE
TTITLE12=CÁ NO FIM DO MUNDO
TTITLE13=BRASILEIRA
EXTD=
EXTT0=
EXTT1=
EXTT2=
EXTT3=
EXTT4=
EXTT5=
EXTT6=
EXTT7=
EXTT8=
EXTT9=
EXTT10=
EXTT11=
EXTT12=
EXTT13=
PLAYORDER=
